<svg xmlns="http://www.w3.org/2000/svg" width="900" height="700" viewBox="0 0 900 700">
  <defs>
    <linearGradient id="bg" x1="0" y1="0" x2="1" y2="1">
      <stop offset="0%" stop-color="#fdfefe"/>
      <stop offset="100%" stop-color="#dbe7ff"/>
    </linearGradient>
    <linearGradient id="metal" x1="0" y1="0" x2="1" y2="1">
      <stop offset="0%" stop-color="#2f3f6f"/>
      <stop offset="100%" stop-color="#111a32"/>
    </linearGradient>
    <radialGradient id="glow" cx="50%" cy="40%" r="50%">
      <stop offset="0%" stop-color="#9bb7ff" stop-opacity="0.55"/>
      <stop offset="100%" stop-color="#9bb7ff" stop-opacity="0"/>
    </radialGradient>
  </defs>
  <rect width="900" height="700" fill="url(#bg)"/>
  <ellipse cx="450" cy="560" rx="220" ry="46" fill="#98a8cc" opacity="0.28"/>
  <circle cx="450" cy="250" r="210" fill="url(#glow)"/>
  <path d="M286 368c0-100 73-185 164-199 108-16 202 65 202 173" fill="none" stroke="url(#metal)" stroke-width="34" stroke-linecap="round"/>
  <g>
    <rect x="244" y="318" width="88" height="168" rx="40" fill="url(#metal)"/>
    <rect x="256" y="334" width="64" height="136" rx="30" fill="#32497d"/>
    <circle cx="288" cy="404" r="46" fill="#0a1125"/>
    <circle cx="288" cy="404" r="30" fill="#243861"/>
  </g>
  <g>
    <rect x="568" y="318" width="88" height="168" rx="40" fill="url(#metal)"/>
    <rect x="580" y="334" width="64" height="136" rx="30" fill="#32497d"/>
    <circle cx="612" cy="404" r="46" fill="#0a1125"/>
    <circle cx="612" cy="404" r="30" fill="#243861"/>
  </g>
  <text x="62" y="620" fill="#1f2e55" font-size="42" font-family="Arial, sans-serif" font-weight="700">Wireless Headphones</text>
  <text x="62" y="662" fill="#4f628f" font-size="24" font-family="Arial, sans-serif">Studio-style mock product render</text>
</svg>
